<svg xmlns="http://www.w3.org/2000/svg" width="283" height="282" viewBox="0 0 283 282" fill="none">
<g filter="url(#filter0_d_1_16838)">
<rect x="24" y="19.0898" width="206.987" height="205.48" rx="16.7593" fill="white"/>
<rect x="24.1389" y="19.2288" width="206.709" height="205.202" rx="16.6204" stroke="#EDF2F7" stroke-width="0.277838"/>
</g>
<path d="M106.876 203.147V203.619H103.614V203.281L105.636 200.152H106.104L105.601 201.057L104.265 203.147H106.876ZM106.246 200.152V204.667H105.673V200.152H106.246ZM108.768 204.667H107.825L107.831 204.18H108.768C109.09 204.18 109.359 204.113 109.574 203.979C109.789 203.842 109.95 203.652 110.058 203.408C110.167 203.162 110.222 202.875 110.222 202.546V202.27C110.222 202.011 110.191 201.782 110.129 201.581C110.067 201.379 109.976 201.208 109.856 201.07C109.736 200.929 109.59 200.823 109.416 200.75C109.244 200.678 109.047 200.642 108.824 200.642H107.806V200.152H108.824C109.119 200.152 109.389 200.201 109.633 200.301C109.877 200.398 110.087 200.539 110.263 200.725C110.44 200.909 110.577 201.133 110.672 201.395C110.767 201.656 110.815 201.949 110.815 202.276V202.546C110.815 202.872 110.767 203.167 110.672 203.43C110.577 203.69 110.439 203.912 110.259 204.096C110.082 204.28 109.867 204.422 109.614 204.521C109.364 204.618 109.082 204.667 108.768 204.667ZM108.144 200.152V204.667H107.546V200.152H108.144Z" fill="#828282"/>
<path d="M138.52 203.199L138.061 203.081L138.287 200.832H140.604V201.363H138.774L138.638 202.591C138.72 202.543 138.825 202.499 138.951 202.457C139.079 202.416 139.226 202.395 139.391 202.395C139.6 202.395 139.787 202.432 139.953 202.504C140.118 202.574 140.259 202.675 140.374 202.808C140.492 202.94 140.582 203.099 140.644 203.285C140.706 203.471 140.737 203.679 140.737 203.909C140.737 204.126 140.707 204.325 140.647 204.507C140.589 204.689 140.502 204.848 140.384 204.985C140.266 205.119 140.117 205.224 139.937 205.298C139.759 205.372 139.549 205.41 139.308 205.41C139.126 205.41 138.953 205.385 138.79 205.335C138.628 205.284 138.484 205.206 138.356 205.103C138.229 204.997 138.126 204.867 138.045 204.712C137.967 204.555 137.917 204.371 137.897 204.16H138.442C138.467 204.329 138.517 204.472 138.591 204.588C138.666 204.704 138.763 204.792 138.883 204.851C139.005 204.909 139.146 204.938 139.308 204.938C139.444 204.938 139.565 204.915 139.67 204.867C139.776 204.819 139.865 204.751 139.937 204.662C140.009 204.573 140.064 204.466 140.101 204.34C140.141 204.214 140.16 204.072 140.16 203.915C140.16 203.772 140.141 203.64 140.101 203.518C140.062 203.396 140.003 203.29 139.925 203.199C139.848 203.108 139.754 203.037 139.642 202.988C139.531 202.936 139.403 202.91 139.258 202.91C139.066 202.91 138.92 202.936 138.821 202.988C138.724 203.039 138.623 203.11 138.52 203.199ZM142.737 205.348H141.795L141.801 204.861H142.737C143.06 204.861 143.329 204.794 143.544 204.659C143.759 204.523 143.92 204.333 144.028 204.089C144.137 203.843 144.192 203.555 144.192 203.226V202.95C144.192 202.692 144.161 202.463 144.099 202.262C144.037 202.059 143.946 201.889 143.826 201.75C143.706 201.61 143.559 201.503 143.386 201.431C143.214 201.358 143.017 201.322 142.793 201.322H141.776V200.832H142.793C143.089 200.832 143.359 200.882 143.603 200.981C143.847 201.078 144.057 201.22 144.232 201.406C144.41 201.59 144.547 201.813 144.642 202.076C144.737 202.336 144.784 202.63 144.784 202.957V203.226C144.784 203.553 144.737 203.848 144.642 204.11C144.547 204.371 144.409 204.593 144.229 204.777C144.051 204.961 143.836 205.103 143.584 205.202C143.334 205.299 143.052 205.348 142.737 205.348ZM142.114 200.832V205.348H141.516V200.832H142.114Z" fill="#828282"/>
<path d="M173.967 200.826H174.016V201.313H173.967C173.663 201.313 173.409 201.363 173.204 201.462C172.999 201.559 172.837 201.69 172.717 201.856C172.597 202.019 172.51 202.203 172.456 202.408C172.405 202.612 172.379 202.82 172.379 203.031V203.695C172.379 203.895 172.403 204.073 172.45 204.228C172.498 204.381 172.563 204.51 172.646 204.616C172.728 204.721 172.821 204.801 172.925 204.855C173.03 204.908 173.14 204.935 173.253 204.935C173.386 204.935 173.504 204.91 173.607 204.861C173.71 204.809 173.797 204.738 173.867 204.647C173.94 204.554 173.995 204.444 174.032 204.318C174.069 204.192 174.088 204.053 174.088 203.903C174.088 203.768 174.071 203.639 174.038 203.515C174.005 203.389 173.954 203.277 173.886 203.18C173.818 203.081 173.732 203.003 173.629 202.947C173.527 202.889 173.406 202.861 173.266 202.861C173.107 202.861 172.958 202.9 172.819 202.978C172.683 203.055 172.57 203.156 172.481 203.282C172.394 203.406 172.345 203.542 172.332 203.689L172.028 203.685C172.057 203.454 172.111 203.256 172.19 203.093C172.27 202.928 172.37 202.793 172.487 202.69C172.607 202.585 172.741 202.508 172.888 202.46C173.036 202.411 173.194 202.386 173.359 202.386C173.584 202.386 173.779 202.428 173.942 202.513C174.105 202.598 174.24 202.712 174.345 202.854C174.451 202.995 174.528 203.154 174.578 203.332C174.629 203.508 174.655 203.689 174.655 203.875C174.655 204.088 174.625 204.287 174.565 204.473C174.505 204.659 174.415 204.823 174.295 204.963C174.178 205.104 174.032 205.213 173.858 205.292C173.685 205.37 173.483 205.41 173.253 205.41C173.01 205.41 172.797 205.36 172.615 205.261C172.433 205.16 172.282 205.025 172.162 204.858C172.042 204.69 171.952 204.504 171.892 204.299C171.832 204.095 171.802 203.887 171.802 203.676V203.406C171.802 203.088 171.834 202.776 171.898 202.47C171.962 202.164 172.073 201.887 172.23 201.639C172.389 201.391 172.609 201.193 172.891 201.046C173.172 200.9 173.53 200.826 173.967 200.826ZM176.708 205.348H175.765L175.772 204.861H176.708C177.031 204.861 177.299 204.794 177.514 204.659C177.73 204.523 177.891 204.333 177.998 204.089C178.108 203.843 178.163 203.555 178.163 203.226V202.95C178.163 202.692 178.132 202.463 178.07 202.262C178.008 202.059 177.917 201.889 177.797 201.75C177.677 201.61 177.53 201.503 177.356 201.431C177.185 201.358 176.987 201.322 176.764 201.322H175.747V200.832H176.764C177.06 200.832 177.329 200.882 177.573 200.981C177.817 201.078 178.027 201.22 178.203 201.406C178.381 201.59 178.517 201.813 178.612 202.076C178.707 202.336 178.755 202.63 178.755 202.957V203.226C178.755 203.553 178.707 203.848 178.612 204.11C178.517 204.371 178.38 204.593 178.2 204.777C178.022 204.961 177.807 205.103 177.555 205.202C177.305 205.299 177.022 205.348 176.708 205.348ZM176.085 200.832V205.348H175.486V200.832H176.085Z" fill="#828282"/>
<path d="M206.089 200.832V201.155L204.219 205.348H203.615L205.482 201.304H203.038V200.832H206.089ZM208.114 205.348H207.172L207.178 204.861H208.114C208.437 204.861 208.706 204.794 208.921 204.659C209.136 204.523 209.297 204.333 209.405 204.089C209.514 203.843 209.569 203.555 209.569 203.226V202.95C209.569 202.692 209.538 202.463 209.476 202.262C209.414 202.059 209.323 201.889 209.203 201.75C209.083 201.61 208.936 201.503 208.763 201.431C208.591 201.358 208.394 201.322 208.17 201.322H207.153V200.832H208.17C208.466 200.832 208.736 200.882 208.98 200.981C209.224 201.078 209.433 201.22 209.609 201.406C209.787 201.59 209.923 201.813 210.019 202.076C210.114 202.336 210.161 202.63 210.161 202.957V203.226C210.161 203.553 210.114 203.848 210.019 204.11C209.923 204.371 209.786 204.593 209.606 204.777C209.428 204.961 209.213 205.103 208.961 205.202C208.711 205.299 208.429 205.348 208.114 205.348ZM207.491 200.832V205.348H206.893V200.832H207.491Z" fill="#828282"/>
<rect x="53.2422" y="193.903" width="27.7739" height="19.6592" rx="9.82962" fill="#E7E7E7" fill-opacity="0.92"/>
<path d="M65.8471 204.955V205.652H62.7584V205.057L64.219 203.491C64.3658 203.327 64.4816 203.184 64.5664 203.06C64.6511 202.934 64.7121 202.821 64.7493 202.722C64.7886 202.62 64.8082 202.524 64.8082 202.433C64.8082 202.297 64.7855 202.18 64.74 202.083C64.6945 201.984 64.6273 201.907 64.5384 201.853C64.4516 201.8 64.3441 201.773 64.2159 201.773C64.0795 201.773 63.9616 201.806 63.8624 201.872C63.7652 201.938 63.6908 202.03 63.6391 202.148C63.5895 202.266 63.5647 202.399 63.5647 202.548H62.6684C62.6684 202.279 62.7325 202.033 62.8607 201.81C62.9889 201.585 63.1698 201.406 63.4034 201.273C63.637 201.139 63.9141 201.072 64.2345 201.072C64.5508 201.072 64.8175 201.124 65.0346 201.227C65.2538 201.328 65.4192 201.475 65.5308 201.667C65.6445 201.858 65.7014 202.085 65.7014 202.35C65.7014 202.498 65.6776 202.644 65.6301 202.787C65.5825 202.927 65.5143 203.068 65.4254 203.209C65.3385 203.347 65.2331 203.488 65.1091 203.63C64.985 203.773 64.8475 203.921 64.6966 204.074L63.912 204.955H65.8471ZM67.8846 205.652H66.9015L66.9077 204.927H67.8846C68.1286 204.927 68.3343 204.872 68.5018 204.762C68.6692 204.651 68.7953 204.488 68.8801 204.275C68.9669 204.062 69.0103 203.805 69.0103 203.503V203.283C69.0103 203.051 68.9855 202.848 68.9359 202.672C68.8884 202.496 68.817 202.349 68.7219 202.229C68.6268 202.109 68.51 202.019 68.3715 201.959C68.233 201.897 68.0738 201.866 67.8939 201.866H66.8829V201.137H67.8939C68.1958 201.137 68.4718 201.189 68.7219 201.292C68.9742 201.393 69.1923 201.539 69.3763 201.729C69.5603 201.92 69.7019 202.147 69.8012 202.412C69.9025 202.674 69.9531 202.967 69.9531 203.289V203.503C69.9531 203.824 69.9025 204.116 69.8012 204.381C69.7019 204.645 69.5603 204.873 69.3763 205.063C69.1944 205.251 68.9762 205.397 68.7219 205.5C68.4697 205.602 68.1906 205.652 67.8846 205.652ZM67.4287 201.137V205.652H66.4984V201.137H67.4287Z" fill="#151515"/>
<path d="M24.0742 163.672C35.1442 163.672 36.2155 178.085 47.9997 178.085C59.7839 178.085 56.9271 137.121 67.9972 137.121C79.0672 137.121 72.9965 102.606 88.3517 102.606C103.707 102.606 96.5649 137.121 110.492 137.121C124.418 137.121 122.276 96.8297 131.203 96.8297C140.131 96.8297 137.631 120.812 148.344 120.812C159.057 120.812 154.058 81.2559 165.485 81.2559C176.912 81.2559 175.84 98.5225 186.196 98.5225C196.552 98.5225 197.623 118.536 211.907 118.536C226.191 118.536 217.264 140.843 230.833 140.843" stroke="#6C5FBC" stroke-width="1.98779" stroke-linecap="round" stroke-linejoin="round"/>
<path d="M196.172 102.244C197.992 102.244 199.583 103.835 199.583 105.943C199.583 108.052 197.992 109.643 196.172 109.643C194.352 109.642 192.762 108.052 192.762 105.943C192.762 103.835 194.352 102.244 196.172 102.244Z" fill="#C5BFED" stroke="#6C5FBC" stroke-width="2.22012"/>
<rect x="195.556" y="84.0459" width="25.6489" height="11.9084" rx="5.95422" fill="#6C5FBC"/>
<path d="M204.199 90.7623C204.199 90.9547 204.149 91.136 204.049 91.3062C203.953 91.4728 203.808 91.6115 203.616 91.7225C203.427 91.8298 203.203 91.8927 202.944 91.9112V92.3608H202.589V91.9057C202.219 91.8724 201.921 91.7614 201.696 91.5727C201.47 91.3803 201.353 91.1212 201.346 90.7956H202.178C202.201 91.062 202.338 91.223 202.589 91.2785V90.2184C202.323 90.1518 202.108 90.0852 201.945 90.0186C201.783 89.952 201.642 89.8447 201.524 89.6967C201.405 89.5487 201.346 89.347 201.346 89.0917C201.346 88.7698 201.461 88.5071 201.69 88.3035C201.923 88.1 202.223 87.9835 202.589 87.9539V87.5043H202.944V87.9539C203.3 87.9835 203.583 88.0908 203.794 88.2758C204.008 88.4608 204.128 88.7161 204.154 89.0417H203.316C203.305 88.9344 203.266 88.8419 203.2 88.7642C203.137 88.6828 203.052 88.6255 202.944 88.5922V89.6412C203.222 89.7115 203.44 89.7799 203.599 89.8465C203.762 89.9094 203.903 90.0149 204.021 90.1629C204.14 90.3072 204.199 90.507 204.199 90.7623ZM202.156 89.0528C202.156 89.1749 202.193 89.2748 202.267 89.3525C202.341 89.4266 202.449 89.4876 202.589 89.5357V88.5755C202.456 88.594 202.351 88.644 202.273 88.7254C202.195 88.8068 202.156 88.9159 202.156 89.0528ZM202.944 91.2896C203.085 91.2637 203.194 91.2063 203.272 91.1175C203.353 91.0287 203.394 90.9214 203.394 90.7956C203.394 90.6735 203.355 90.5755 203.277 90.5015C203.2 90.4275 203.089 90.3664 202.944 90.3183V91.2896ZM204.944 91.0898V90.4793L206.759 87.8817H207.664V90.4127H208.152V91.0898H207.664V91.8779H206.887V91.0898H204.944ZM206.937 88.7143L205.799 90.4127H206.937V88.7143ZM208.647 89.8021C208.647 89.162 208.762 88.6606 208.991 88.298C209.224 87.9354 209.609 87.7541 210.146 87.7541C210.682 87.7541 211.065 87.9354 211.294 88.298C211.528 88.6606 211.644 89.162 211.644 89.8021C211.644 90.446 211.528 90.951 211.294 91.3174C211.065 91.6837 210.682 91.8668 210.146 91.8668C209.609 91.8668 209.224 91.6837 208.991 91.3174C208.762 90.951 208.647 90.446 208.647 89.8021ZM210.878 89.8021C210.878 89.5283 210.86 89.2989 210.823 89.1139C210.789 88.9252 210.719 88.7716 210.612 88.6532C210.508 88.5348 210.353 88.4756 210.146 88.4756C209.938 88.4756 209.781 88.5348 209.674 88.6532C209.57 88.7716 209.5 88.9252 209.463 89.1139C209.43 89.2989 209.413 89.5283 209.413 89.8021C209.413 90.0833 209.43 90.3201 209.463 90.5126C209.496 90.7013 209.566 90.8548 209.674 90.9732C209.781 91.0879 209.938 91.1453 210.146 91.1453C210.353 91.1453 210.51 91.0879 210.617 90.9732C210.725 90.8548 210.795 90.7013 210.828 90.5126C210.862 90.3201 210.878 90.0833 210.878 89.8021ZM213.134 90.7401C213.164 90.9029 213.23 91.0287 213.334 91.1175C213.441 91.2026 213.584 91.2452 213.761 91.2452C213.991 91.2452 214.157 91.1508 214.261 90.9621C214.365 90.7697 214.416 90.4478 214.416 89.9964C214.331 90.1148 214.211 90.2073 214.056 90.2739C213.904 90.3405 213.739 90.3738 213.562 90.3738C213.325 90.3738 213.11 90.3257 212.918 90.2295C212.729 90.1296 212.579 89.9834 212.468 89.791C212.357 89.5949 212.302 89.3581 212.302 89.0806C212.302 88.6699 212.424 88.3442 212.668 88.1037C212.912 87.8595 213.245 87.7374 213.667 87.7374C214.193 87.7374 214.563 87.9058 214.777 88.2425C214.995 88.5792 215.105 89.0861 215.105 89.7633C215.105 90.2443 215.062 90.6384 214.977 90.9455C214.896 91.2526 214.753 91.4857 214.55 91.6448C214.35 91.8039 214.076 91.8835 213.728 91.8835C213.454 91.8835 213.221 91.8317 213.029 91.7281C212.836 91.6208 212.688 91.482 212.585 91.3118C212.485 91.1379 212.428 90.9473 212.413 90.7401H213.134ZM213.723 89.7411C213.915 89.7411 214.067 89.6819 214.178 89.5635C214.289 89.4451 214.344 89.2859 214.344 89.0861C214.344 88.8678 214.285 88.6995 214.167 88.5811C214.052 88.459 213.895 88.3979 213.695 88.3979C213.495 88.3979 213.336 88.4608 213.218 88.5866C213.103 88.7087 213.045 88.8715 213.045 89.075C213.045 89.2711 213.101 89.4321 213.212 89.5579C213.327 89.68 213.497 89.7411 213.723 89.7411Z" fill="white"/>
<line opacity="0.09" x1="24.3278" y1="157.766" x2="230.306" y2="157.766" stroke="#6C5FBC" stroke-width="0.585257" stroke-linecap="round"/>
<line opacity="0.09" x1="25.0094" y1="133.109" x2="230.988" y2="133.109" stroke="#6C5FBC" stroke-width="0.585257" stroke-linecap="round"/>
<line opacity="0.09" x1="24.3278" y1="107.726" x2="230.306" y2="107.726" stroke="#6C5FBC" stroke-width="0.585257" stroke-linecap="round"/>
<g clip-path="url(#clip0_1_16838)">
<rect x="49.873" y="32.2773" width="37.9194" height="18.2662" rx="9.13309" fill="#6C5FBC"/>
<path d="M66.1004 38.9861V43.4102H65.5186V40.1113L64.0482 43.4102H63.639L62.1622 40.1049V43.4102H61.5804V38.9861H62.207L63.8436 42.643L65.4803 38.9861H66.1004ZM66.8697 41.6456C66.8697 41.2876 66.9421 40.9744 67.0871 40.7058C67.232 40.4331 67.4301 40.2221 67.6816 40.0729C67.9373 39.9238 68.2208 39.8492 68.5319 39.8492C68.8388 39.8492 69.1052 39.9152 69.3311 40.0474C69.5569 40.1795 69.7253 40.3457 69.8361 40.546V39.9067H70.4243V43.4102H69.8361V42.7581C69.721 42.9626 69.5484 43.1331 69.3183 43.2695C69.0924 43.4016 68.8281 43.4677 68.5255 43.4677C68.2144 43.4677 67.9331 43.391 67.6816 43.2375C67.4301 43.0841 67.232 42.8689 67.0871 42.5918C66.9421 42.3148 66.8697 41.9994 66.8697 41.6456ZM69.8361 41.652C69.8361 41.3878 69.7828 41.1576 69.6763 40.9616C69.5697 40.7655 69.4248 40.6163 69.2415 40.5141C69.0625 40.4075 68.8643 40.3542 68.647 40.3542C68.4296 40.3542 68.2314 40.4054 68.0524 40.5077C67.8734 40.61 67.7306 40.7591 67.6241 40.9552C67.5175 41.1512 67.4642 41.3814 67.4642 41.6456C67.4642 41.9142 67.5175 42.1486 67.6241 42.3489C67.7306 42.5449 67.8734 42.6963 68.0524 42.8028C68.2314 42.9051 68.4296 42.9562 68.647 42.9562C68.8643 42.9562 69.0625 42.9051 69.2415 42.8028C69.4248 42.6963 69.5697 42.5449 69.6763 42.3489C69.7828 42.1486 69.8361 41.9163 69.8361 41.652ZM71.7079 39.3377C71.5971 39.3377 71.5033 39.2994 71.4266 39.2226C71.3499 39.1459 71.3115 39.0522 71.3115 38.9413C71.3115 38.8305 71.3499 38.7368 71.4266 38.66C71.5033 38.5833 71.5971 38.545 71.7079 38.545C71.8145 38.545 71.904 38.5833 71.9764 38.66C72.0531 38.7368 72.0915 38.8305 72.0915 38.9413C72.0915 39.0522 72.0531 39.1459 71.9764 39.2226C71.904 39.2994 71.8145 39.3377 71.7079 39.3377ZM71.9892 39.9067V43.4102H71.4074V39.9067H71.9892ZM74.6877 39.8428C75.1139 39.8428 75.4592 39.9728 75.7234 40.2328C75.9877 40.4885 76.1198 40.8593 76.1198 41.3452V43.4102H75.5444V41.4283C75.5444 41.0788 75.457 40.8124 75.2823 40.6291C75.1075 40.4416 74.8689 40.3478 74.5662 40.3478C74.2594 40.3478 74.0143 40.4437 73.831 40.6355C73.652 40.8273 73.5625 41.1065 73.5625 41.473V43.4102H72.9807V39.9067H73.5625V40.4054C73.6776 40.2264 73.8332 40.0878 74.0292 39.9898C74.2295 39.8918 74.449 39.8428 74.6877 39.8428Z" fill="white"/>
<path d="M106.683 38.6368L105.3 43.4111H104.601L103.491 39.5684L102.341 43.4111L101.649 43.418L100.313 38.6368H100.978L102.019 42.6851L103.17 38.6368H103.868L104.964 42.6714L106.012 38.6368H106.683ZM110.859 41.3904C110.859 41.5092 110.852 41.6347 110.838 41.7672H107.838C107.861 42.1371 107.987 42.427 108.215 42.6371C108.448 42.8426 108.729 42.9453 109.058 42.9453C109.327 42.9453 109.551 42.8837 109.729 42.7604C109.911 42.6325 110.039 42.4636 110.112 42.2535H110.784C110.683 42.6143 110.482 42.9088 110.181 43.1371C109.88 43.3609 109.505 43.4728 109.058 43.4728C108.701 43.4728 108.382 43.3929 108.099 43.233C107.82 43.0732 107.601 42.8472 107.441 42.5549C107.281 42.2581 107.201 41.9156 107.201 41.5274C107.201 41.1393 107.279 40.7991 107.434 40.5068C107.589 40.2146 107.806 39.9908 108.085 39.8355C108.368 39.6757 108.692 39.5958 109.058 39.5958C109.414 39.5958 109.729 39.6734 110.003 39.8287C110.277 39.9839 110.487 40.1986 110.633 40.4726C110.784 40.742 110.859 41.0479 110.859 41.3904ZM110.215 41.2603C110.215 41.0228 110.163 40.8196 110.058 40.6507C109.953 40.4771 109.809 40.347 109.626 40.2602C109.448 40.1689 109.249 40.1232 109.03 40.1232C108.715 40.1232 108.446 40.2237 108.222 40.4246C108.003 40.6255 107.877 40.9041 107.845 41.2603H110.215ZM115.175 41.3904C115.175 41.5092 115.168 41.6347 115.155 41.7672H112.154C112.177 42.1371 112.303 42.427 112.531 42.6371C112.764 42.8426 113.045 42.9453 113.374 42.9453C113.643 42.9453 113.867 42.8837 114.045 42.7604C114.228 42.6325 114.356 42.4636 114.429 42.2535H115.1C114.999 42.6143 114.798 42.9088 114.497 43.1371C114.196 43.3609 113.821 43.4728 113.374 43.4728C113.018 43.4728 112.698 43.3929 112.415 43.233C112.136 43.0732 111.917 42.8472 111.757 42.5549C111.597 42.2581 111.517 41.9156 111.517 41.5274C111.517 41.1393 111.595 40.7991 111.75 40.5068C111.906 40.2146 112.122 39.9908 112.401 39.8355C112.684 39.6757 113.008 39.5958 113.374 39.5958C113.73 39.5958 114.045 39.6734 114.319 39.8287C114.593 39.9839 114.803 40.1986 114.949 40.4726C115.1 40.742 115.175 41.0479 115.175 41.3904ZM114.531 41.2603C114.531 41.0228 114.479 40.8196 114.374 40.6507C114.269 40.4771 114.125 40.347 113.942 40.2602C113.764 40.1689 113.566 40.1232 113.346 40.1232C113.031 40.1232 112.762 40.2237 112.538 40.4246C112.319 40.6255 112.193 40.9041 112.161 41.2603H114.531ZM118.163 43.4111L116.69 41.7535V43.4111H116.067V38.3423H116.69V41.3219L118.135 39.6574H119.005L117.238 41.5274L119.012 43.4111H118.163ZM120.284 38.3423V43.4111H119.66V38.3423H120.284ZM124.648 39.6574L122.387 45.1784H121.743L122.483 43.37L120.969 39.6574H121.661L122.839 42.6988L124.004 39.6574H124.648Z" fill="#828282"/>
<path d="M148.084 38.6711V43.4111H147.46V39.8766L145.885 43.4111H145.446L143.864 39.8698V43.4111H143.241V38.6711H143.912L145.666 42.5892L147.419 38.6711H148.084ZM150.846 43.4728C150.495 43.4728 150.175 43.3929 149.887 43.233C149.604 43.0732 149.381 42.8472 149.216 42.5549C149.056 42.2581 148.976 41.9156 148.976 41.5274C148.976 41.1438 149.059 40.8059 149.223 40.5137C149.392 40.2168 149.62 39.9908 149.908 39.8355C150.196 39.6757 150.518 39.5958 150.874 39.5958C151.23 39.5958 151.552 39.6757 151.84 39.8355C152.127 39.9908 152.353 40.2146 152.518 40.5068C152.687 40.7991 152.771 41.1393 152.771 41.5274C152.771 41.9156 152.684 42.2581 152.511 42.5549C152.342 42.8472 152.111 43.0732 151.819 43.233C151.527 43.3929 151.203 43.4728 150.846 43.4728ZM150.846 42.9248C151.07 42.9248 151.28 42.8723 151.477 42.7673C151.673 42.6622 151.83 42.5047 151.949 42.2946C152.072 42.0846 152.134 41.8288 152.134 41.5274C152.134 41.226 152.075 40.9703 151.956 40.7603C151.837 40.5502 151.682 40.3949 151.49 40.2945C151.298 40.1894 151.091 40.1369 150.867 40.1369C150.639 40.1369 150.429 40.1894 150.237 40.2945C150.05 40.3949 149.899 40.5502 149.785 40.7603C149.67 40.9703 149.613 41.226 149.613 41.5274C149.613 41.8334 149.668 42.0914 149.778 42.3015C149.892 42.5115 150.043 42.6691 150.23 42.7741C150.417 42.8746 150.623 42.9248 150.846 42.9248ZM155.488 39.5889C155.945 39.5889 156.315 39.7282 156.598 40.0068C156.881 40.2808 157.022 40.6781 157.022 41.1986V43.4111H156.406V41.2877C156.406 40.9132 156.312 40.6278 156.125 40.4315C155.938 40.2305 155.682 40.1301 155.358 40.1301C155.029 40.1301 154.767 40.2328 154.57 40.4383C154.378 40.6438 154.283 40.9429 154.283 41.3356V43.4111H153.659V39.6574H154.283V40.1917C154.406 39.9999 154.573 39.8515 154.783 39.7465C154.997 39.6415 155.232 39.5889 155.488 39.5889ZM158.87 40.1712V42.3837C158.87 42.5663 158.908 42.6965 158.986 42.7741C159.064 42.8472 159.198 42.8837 159.39 42.8837H159.849V43.4111H159.287C158.94 43.4111 158.68 43.3312 158.506 43.1714C158.333 43.0116 158.246 42.749 158.246 42.3837V40.1712H157.76V39.6574H158.246V38.7122H158.87V39.6574H159.849V40.1712H158.87ZM161.296 38.3423V43.4111H160.673V38.3423H161.296ZM165.66 39.6574L163.4 45.1784H162.756L163.496 43.37L161.982 39.6574H162.674L163.852 42.6988L165.016 39.6574H165.66Z" fill="#828282"/>
<path d="M187.175 38.6368L185.62 41.6096V43.4111H184.997V41.6096L183.435 38.6368H184.127L185.305 41.0548L186.483 38.6368H187.175ZM191.326 41.3904C191.326 41.5092 191.319 41.6347 191.305 41.7672H188.305C188.328 42.1371 188.453 42.427 188.682 42.6371C188.915 42.8426 189.196 42.9453 189.524 42.9453C189.794 42.9453 190.018 42.8837 190.196 42.7604C190.378 42.6325 190.506 42.4636 190.579 42.2535H191.25C191.15 42.6143 190.949 42.9088 190.648 43.1371C190.346 43.3609 189.972 43.4728 189.524 43.4728C189.168 43.4728 188.848 43.3929 188.565 43.233C188.287 43.0732 188.068 42.8472 187.908 42.5549C187.748 42.2581 187.668 41.9156 187.668 41.5274C187.668 41.1393 187.746 40.7991 187.901 40.5068C188.056 40.2146 188.273 39.9908 188.552 39.8355C188.835 39.6757 189.159 39.5958 189.524 39.5958C189.881 39.5958 190.196 39.6734 190.47 39.8287C190.744 39.9839 190.954 40.1986 191.1 40.4726C191.25 40.742 191.326 41.0479 191.326 41.3904ZM190.682 41.2603C190.682 41.0228 190.629 40.8196 190.524 40.6507C190.419 40.4771 190.276 40.347 190.093 40.2602C189.915 40.1689 189.716 40.1232 189.497 40.1232C189.182 40.1232 188.912 40.2237 188.689 40.4246C188.469 40.6255 188.344 40.9041 188.312 41.2603H190.682ZM191.984 41.5206C191.984 41.137 192.062 40.8014 192.217 40.5137C192.372 40.2214 192.585 39.9954 192.854 39.8355C193.128 39.6757 193.432 39.5958 193.765 39.5958C194.094 39.5958 194.379 39.6666 194.621 39.8081C194.863 39.9497 195.044 40.1278 195.163 40.3424V39.6574H195.793V43.4111H195.163V42.7125C195.039 42.9316 194.854 43.1143 194.608 43.2604C194.366 43.402 194.083 43.4728 193.758 43.4728C193.425 43.4728 193.124 43.3906 192.854 43.2262C192.585 43.0618 192.372 42.8312 192.217 42.5344C192.062 42.2375 191.984 41.8996 191.984 41.5206ZM195.163 41.5274C195.163 41.2443 195.105 40.9977 194.991 40.7877C194.877 40.5776 194.722 40.4178 194.526 40.3082C194.334 40.194 194.121 40.1369 193.888 40.1369C193.656 40.1369 193.443 40.1917 193.251 40.3013C193.06 40.4109 192.907 40.5707 192.793 40.7808C192.678 40.9909 192.621 41.2375 192.621 41.5206C192.621 41.8083 192.678 42.0594 192.793 42.2741C192.907 42.4841 193.06 42.6462 193.251 42.7604C193.443 42.87 193.656 42.9248 193.888 42.9248C194.121 42.9248 194.334 42.87 194.526 42.7604C194.722 42.6462 194.877 42.4841 194.991 42.2741C195.105 42.0594 195.163 41.8106 195.163 41.5274ZM197.538 40.2671C197.648 40.0524 197.803 39.8858 198.004 39.767C198.209 39.6483 198.458 39.5889 198.75 39.5889V40.2328H198.586C197.887 40.2328 197.538 40.6118 197.538 41.3699V43.4111H196.915V39.6574H197.538V40.2671ZM200.162 38.3423V43.4111H199.538V38.3423H200.162ZM204.526 39.6574L202.265 45.1784H201.621L202.361 43.37L200.847 39.6574H201.539L202.717 42.6988L203.882 39.6574H204.526Z" fill="#828282"/>
</g>
<defs>
<filter id="filter0_d_1_16838" x="0.46586" y="0.262533" width="282.297" height="280.79" filterUnits="userSpaceOnUse" color-interpolation-filters="sRGB">
<feFlood flood-opacity="0" result="BackgroundImageFix"/>
<feColorMatrix in="SourceAlpha" type="matrix" values="0 0 0 0 0 0 0 0 0 0 0 0 0 0 0 0 0 0 127 0" result="hardAlpha"/>
<feOffset dx="14.1205" dy="18.8273"/>
<feGaussianBlur stdDeviation="18.8273"/>
<feColorMatrix type="matrix" values="0 0 0 0 0.101961 0 0 0 0 0.12549 0 0 0 0 0.172549 0 0 0 0.15 0"/>
<feBlend mode="normal" in2="BackgroundImageFix" result="effect1_dropShadow_1_16838"/>
<feBlend mode="normal" in="SourceGraphic" in2="effect1_dropShadow_1_16838" result="shape"/>
</filter>
<clipPath id="clip0_1_16838">
<rect x="49.873" y="32.2773" width="159.389" height="18.2662" rx="9.13309" fill="white"/>
</clipPath>
</defs>
</svg>