<svg width="26" height="26" viewBox="0 0 26 26" fill="none" xmlns="http://www.w3.org/2000/svg">
<path d="M17.7996 21.465H7.32904C4.18787 21.465 2.09375 19.8945 2.09375 16.2297V8.90033C2.09375 5.23563 4.18787 3.66504 7.32904 3.66504H17.7996C20.9408 3.66504 23.0349 5.23563 23.0349 8.90033V16.2297C23.0349 19.8945 20.9408 21.465 17.7996 21.465Z" stroke="#22C55E" stroke-width="1.57059" stroke-miterlimit="10" stroke-linecap="round" stroke-linejoin="round"/>
<path d="M12.565 15.7057C14.2998 15.7057 15.7062 14.2993 15.7062 12.5645C15.7062 10.8297 14.2998 9.42334 12.565 9.42334C10.8302 9.42334 9.42383 10.8297 9.42383 12.5645C9.42383 14.2993 10.8302 15.7057 12.565 15.7057Z" stroke="#22C55E" stroke-width="1.57059" stroke-miterlimit="10" stroke-linecap="round" stroke-linejoin="round"/>
<path d="M5.75977 9.94727V15.1826" stroke="#22C55E" stroke-width="1.57059" stroke-miterlimit="10" stroke-linecap="round" stroke-linejoin="round"/>
<path d="M19.3701 9.94727V15.1826" stroke="#22C55E" stroke-width="1.57059" stroke-miterlimit="10" stroke-linecap="round" stroke-linejoin="round"/>
</svg>
