<svg width="26" height="26" viewBox="0 0 26 26" fill="none" xmlns="http://www.w3.org/2000/svg">
<path d="M13.2557 2.63676L13.2243 2.71005L10.1878 9.75676H7.20371C6.49171 9.75676 5.81112 9.90334 5.19336 10.1651L7.02571 5.7884L7.06759 5.6837L7.14089 5.51617C7.16183 5.45335 7.18277 5.39052 7.21418 5.33817C8.58583 2.16558 10.1355 1.44311 13.2557 2.63676Z" stroke="#936DFF" stroke-width="1.57059" stroke-linecap="round" stroke-linejoin="round"/>
<path d="M18.899 9.96613C18.4279 9.81954 17.9253 9.75672 17.4227 9.75672H10.1875L13.224 2.71001L13.2554 2.63672C13.4124 2.68907 13.559 2.76237 13.7161 2.82519L16.0301 3.79895C17.318 4.33295 18.2184 4.8879 18.7629 5.55801C18.8676 5.68366 18.9514 5.79884 19.0247 5.93495C19.1189 6.08154 19.1922 6.22813 19.2341 6.38519C19.276 6.47942 19.3074 6.57366 19.3283 6.65742C19.611 7.53695 19.4435 8.61543 18.899 9.96613Z" stroke="#936DFF" stroke-width="1.57059" stroke-linecap="round" stroke-linejoin="round"/>
<path d="M22.5336 14.867V16.9087C22.5336 17.1181 22.5231 17.3276 22.5126 17.537C22.3137 21.1912 20.2719 23.034 16.3978 23.034H8.23076C7.97947 23.034 7.72817 23.0131 7.48735 22.9817C4.1577 22.7618 2.3777 20.9818 2.15782 17.6521C2.12641 17.4113 2.10547 17.16 2.10547 16.9087V14.867C2.10547 12.7624 3.38288 10.951 5.20476 10.1657C5.833 9.90391 6.50312 9.75732 7.21512 9.75732H17.4344C17.9475 9.75732 18.4501 9.83062 18.9108 9.96674C20.9944 10.6054 22.5336 12.553 22.5336 14.867Z" stroke="#936DFF" stroke-width="1.57059" stroke-linecap="round" stroke-linejoin="round"/>
<path d="M7.0254 5.78857L5.19304 10.1653C3.37116 10.9506 2.09375 12.762 2.09375 14.8666V11.7987C2.09375 8.82505 4.20881 6.34352 7.0254 5.78857Z" stroke="#936DFF" stroke-width="1.57059" stroke-linecap="round" stroke-linejoin="round"/>
<path d="M22.531 11.7976V14.8655C22.531 12.5619 21.0023 10.6039 18.9082 9.97569C19.4527 8.61451 19.6097 7.54651 19.348 6.65651C19.327 6.56228 19.2956 6.46804 19.2537 6.38428C21.2013 7.38945 22.531 9.45216 22.531 11.7976Z" stroke="#936DFF" stroke-width="1.57059" stroke-linecap="round" stroke-linejoin="round"/>
</svg>
